# xmcd
#
# Track frame offsets: 
#        150
#        13970
#        29807
#        43902
#        60831
#        62818
#        75818
#        86986
#        97551
#        114128
#        127962
#        141997
#        162929
#        175988
#
# Disc length: 2629 seconds
#
# Revision: 0
# Processed by: cddbd v1.5.2PL0 Copyright (c) Steve Scherf et al.
# Submitted via: ExactAudioCopy v1.0b4
#
DISCID=af0a430e
DTITLE=Johnny Nicholas and Friends - Too Many Bad Habits - Disc 1
DYEAR=2017
DGENRE=Blues
TTITLE0=Mandolin Shuffle
TTITLE1=Looks Can Be Deceivin'
TTITLE2=Too Many Bad Habits
TTITLE3=Sittin' On Top Of The World
TTITLE4=Got The Train
TTITLE5=Rock My Blues Away
TTITLE6=Blues Walk
TTITLE7=Grinnin' In Your Face
TTITLE8=The New Canned Heat Blues
TTITLE9=West Wind
TTITLE10=Blues Came Fallin' Down
TTITLE11=Careless Love
TTITLE12=Gettin' Out Town
TTITLE13=Hellhound On My Trail
EXTD=
EXTT0=
EXTT1=
EXTT2=
EXTT3=
EXTT4=
EXTT5=
EXTT6=
EXTT7=
EXTT8=
EXTT9=
EXTT10=
EXTT11=
EXTT12=
EXTT13=
PLAYORDER=
